<?xml version="1.0" encoding="UTF-8"?>
<svg id="Layer_2" xmlns="http://www.w3.org/2000/svg" viewBox="0 0 77.02 20.84">
  <defs>
    <style>
      .cls-1 {
        fill: #444;
      }

      .cls-2 {
        fill: #00ffc4;
        stroke: #00ffc4;
      }

      .cls-2, .cls-3, .cls-4, .cls-5, .cls-6 {
        stroke-width: .09px;
      }

      .cls-3 {
        fill: #00d8a5;
        stroke: #00d8a5;
      }

      .cls-4 {
        fill: #5367ff;
        stroke: #5367ff;
      }

      .cls-5 {
        fill: #00ebb4;
        stroke: #00ebb4;
      }

      .cls-6 {
        fill: #00c798;
        stroke: #00c798;
      }
    </style>
  </defs>
  <g id="Layer_3">
    <g>
      <path class="cls-4" d="M3.36,2.9C5.14,1.15,7.57.26,9.99.05c3.74-.09,7.44,1.96,9.31,5.19-2.47,2.25-4.8,4.55-7.14,6.84-2.13-.68-4.21-1.53-6.29-2.3-1.79,1.19-3.61,2.34-5.4,3.49-1.15-3.66.13-7.82,2.89-10.37Z"/>
      <path class="cls-2" d="M19.3,5.24c.3.64.55,1.28.85,1.91-2.81,1.96-4.72,5.02-7.69,6.8-2.13-.26-3.95-1.74-6.12-2-1.83.89-3.36,2.25-5.27,2.93-.21-.51-.43-1.06-.6-1.62,1.79-1.15,3.61-2.3,5.4-3.49,2.08.77,4.17,1.62,6.29,2.3,2.34-2.3,4.68-4.59,7.14-6.84Z"/>
      <path class="cls-1" d="M28.4,6.17c2.04-1.62,5.14-1.36,7.14.3-.34.43-.72.85-1.06,1.28-1.28-.77-2.93-1.45-4.38-.64-2.34,1.19-2.51,4.97-.3,6.38,1.32.89,3.02.55,4.34-.13v-2h-2.59v-1.57h4.34v4.38c-2.08,1.57-5.1,2.17-7.31.6-2.89-1.87-2.93-6.55-.17-8.59Z"/>
      <path class="cls-5" d="M12.45,13.95c2.98-1.79,4.89-4.85,7.69-6.8.17.72.3,1.45.47,2.21-2.51,1.74-4.68,3.95-6.84,6.08-.38.3-.77.72-1.28.85-2.17-.13-4-1.66-6.16-1.83-1.49.55-2.72,1.62-4.04,2.42-.43-.64-.85-1.32-1.23-2,1.91-.68,3.44-2.04,5.27-2.93,2.17.26,4,1.74,6.12,2Z"/>
      <path class="cls-1" d="M37.92,7.74h1.74v1.62c.64-.94,1.53-1.79,2.76-1.79,0,.43.04,1.32.04,1.74-.85.3-1.91.47-2.38,1.4-.68,1.49-.34,3.19-.43,4.76-.55.04-1.15.04-1.74.09v-7.82Z"/>
      <path class="cls-1" d="M45.91,8c2.85-1.53,6.63,1.32,5.74,4.51-.51,2.98-4.59,4.21-6.76,2.13-2.13-1.74-1.57-5.57,1.02-6.63M46.76,9.32c-1.74.64-1.87,3.32-.47,4.38,1.32,1.02,3.61.13,3.61-1.57.47-1.83-1.4-3.53-3.15-2.81Z"/>
      <path class="cls-1" d="M53.01,7.74h1.74c.55,1.74,1.02,3.49,1.57,5.23.6-1.74,1.15-3.49,1.7-5.23.38,0,1.11-.04,1.49-.04.6,1.74,1.06,3.57,1.83,5.27.47-1.79.94-3.57,1.62-5.27.38,0,1.15.04,1.53.09-.64,2.64-1.62,5.19-2.47,7.82-.38,0-1.11-.04-1.49-.04-.6-1.62-1.06-3.27-1.66-4.89-.98,1.45-1.15,3.32-1.91,4.93-.38,0-1.11-.04-1.49-.04-.81-2.59-1.7-5.19-2.47-7.82Z"/>
      <path class="cls-1" d="M65.42,7.74h1.74c.6,1.74,1.06,3.49,1.57,5.27.77-1.7.98-3.66,1.91-5.31h1.19c.89,1.66,1.15,3.61,1.91,5.31.47-1.79.98-3.53,1.57-5.27h1.7c-.85,2.64-1.62,5.31-2.59,7.86-.38,0-1.15-.04-1.49-.04-.55-1.79-1.15-3.53-1.7-5.27-.72,1.74-.98,3.7-1.96,5.31h-1.19c-1.19-2.51-1.74-5.27-2.68-7.86Z"/>
      <path class="cls-3" d="M13.77,15.44c2.17-2.13,4.34-4.34,6.84-6.08.04.85,0,1.7-.04,2.55-2.25,1.57-4.29,3.4-6.16,5.44-.6.55-1.15,1.23-1.91,1.49-2.08-.17-3.83-1.53-5.87-1.87-1.11.21-2.04.81-3.02,1.32-.43-.47-.89-.94-1.32-1.4,1.32-.81,2.55-1.87,4.04-2.42,2.17.17,4,1.7,6.16,1.83.51-.13.89-.55,1.28-.85Z"/>
      <path class="cls-6" d="M14.41,17.35c1.87-2.04,3.91-3.87,6.16-5.44-.64,4.93-5.19,8.88-10.16,8.88-2.47,0-4.89-.98-6.8-2.51.98-.51,1.91-1.11,3.02-1.32,2.04.34,3.78,1.7,5.87,1.87.77-.26,1.32-.94,1.91-1.49Z"/>
    </g>
  </g>
</svg>