<?xml version="1.0" encoding="UTF-8"?>
<svg id="Layer_2" xmlns="http://www.w3.org/2000/svg" viewBox="0 0 46.35 18.49">
  <defs>
    <style>
      .cls-1 {
        fill: #093a6c;
      }
    </style>
  </defs>
  <g id="Layer_3">
    <path class="cls-1" d="M9.01,17.21v1.29H0v-1.29h9.01ZM23.1,17.21c-.9.83-2.09,1.29-3.32,1.29h-9.48v-1.29h12.8ZM36.5,17.21l-.45,1.29-.45-1.29h.9ZM32.19,17.21v1.29h-6.44v-1.29h6.44ZM46.35,17.21v1.29h-6.44v-1.29h6.44ZM24.56,14.75c-.11.45-.28.89-.52,1.29h-13.74v-1.29h14.26ZM37.36,14.75l-.45,1.29h-1.72l-.45-1.29h2.62ZM32.19,14.75v1.29h-6.44v-1.29h6.44ZM46.35,14.75v1.29h-6.44v-1.29h6.44ZM9.01,14.75v1.29H0v-1.29h9.01ZM6.44,12.29v1.29h-3.86v-1.29h3.86ZM16.74,12.29v1.29h-3.86v-1.29h3.86ZM24.53,12.29c.11.42.17.85.17,1.29h-4.33v-1.29h4.16ZM38.22,12.29l-.45,1.29h-3.44l-.45-1.29h4.35ZM32.19,12.29v1.29h-3.86v-1.29h3.86ZM43.78,12.29v1.29h-3.86v-1.29h3.86ZM6.44,9.83v1.29h-3.86v-1.29h3.86ZM32.19,9.83v1.29h-3.86v-1.29h3.86ZM43.78,9.83v1.29h-3.86v-1.29h3.86ZM22.96,9.83c.43.36.79.8,1.07,1.29h-11.16v-1.29h10.09ZM39.09,9.83l-.45,1.29h-5.17l-.45-1.29h6.07ZM35.69,7.37l.36,1.04.36-1.04h7.36v1.29h-3.86v-1.18l-.42,1.18h-6.89l-.42-1.18v1.18h-3.86v-1.29h7.36ZM12.88,7.37h11.16c-.28.49-.65.92-1.07,1.29h-10.09v-1.29ZM6.44,7.37v1.29h-3.86v-1.29h3.86ZM6.44,4.92v1.29h-3.86v-1.29h3.86ZM16.74,4.92v1.29h-3.86v-1.29h3.86ZM24.7,4.92c0,.43-.06.87-.17,1.29h-4.16v-1.29h4.33ZM34.83,4.92l.45,1.29h-6.96v-1.29h6.51ZM43.78,4.92v1.29h-6.96l.45-1.29h6.51ZM9.01,2.46v1.29H0v-1.29h9.01ZM24.04,2.46c.23.4.41.84.52,1.29h-14.26v-1.29h13.74ZM46.35,2.46v1.29h-8.68l.45-1.29h8.23ZM33.98,2.46l.45,1.29h-8.68v-1.29h8.23ZM9.01,0v1.29H0V0h9.01ZM19.78,0c1.23,0,2.41.46,3.32,1.29h-12.8V0h9.48ZM46.35,0v1.29h-7.82L38.98,0h7.37ZM33.12,0l.45,1.29h-7.82V0h7.37Z"/>
  </g>
</svg>