<?xml version="1.0" encoding="UTF-8"?>
<svg id="Layer_2" xmlns="http://www.w3.org/2000/svg" viewBox="0 0 90.72 23.97">
  <defs>
    <style>
      .cls-1 {
        fill: #f7f9fa;
      }
    </style>
  </defs>
  <g id="Layer_3">
    <g>
      <g>
        <path class="cls-1" d="M5.2,12.85L0,0h2.26l5.03,12.85h-2.09ZM5.42,12.85L10.45,0h2.28l-5.2,12.85h-2.11Z"/>
        <path class="cls-1" d="M16.05,13.07c-.92,0-1.74-.21-2.45-.62s-1.28-.98-1.68-1.7c-.4-.72-.61-1.55-.61-2.5s.2-1.77.6-2.5c.4-.72.95-1.29,1.66-1.7.71-.41,1.52-.62,2.44-.62s1.73.21,2.44.62c.71.41,1.26.98,1.66,1.7.4.72.6,1.55.6,2.5s-.2,1.78-.59,2.5c-.39.72-.94,1.29-1.65,1.7-.71.41-1.52.62-2.42.62ZM16.05,11.18c.5,0,.95-.13,1.34-.38.39-.25.7-.59.92-1.03.22-.43.33-.94.33-1.51s-.11-1.08-.34-1.51c-.23-.43-.54-.78-.93-1.03-.39-.25-.84-.38-1.36-.38s-.97.12-1.36.37c-.39.24-.7.59-.92,1.03s-.33.95-.33,1.52.11,1.08.34,1.51c.23.43.54.78.94,1.03.4.25.85.38,1.37.38Z"/>
        <path class="cls-1" d="M26.42,13.07c-.94,0-1.78-.21-2.5-.62-.72-.41-1.29-.98-1.7-1.7-.41-.72-.62-1.55-.62-2.5s.21-1.77.62-2.5c.41-.72.97-1.29,1.69-1.7.72-.41,1.54-.62,2.47-.62s1.73.22,2.46.65c.73.43,1.28,1.06,1.63,1.86l-1.91.73c-.2-.4-.5-.73-.9-.97-.4-.24-.86-.37-1.38-.37s-.95.13-1.34.38c-.39.25-.7.59-.92,1.03-.22.43-.33.93-.33,1.5s.11,1.06.34,1.5c.23.43.54.78.94,1.03.4.25.85.38,1.35.38s.97-.13,1.38-.39c.4-.26.7-.62.9-1.07l1.91.73c-.36.83-.9,1.48-1.62,1.95-.73.47-1.55.7-2.47.7Z"/>
        <path class="cls-1" d="M34.7,13.07c-1.1,0-1.96-.24-2.56-.73-.61-.49-.91-1.18-.91-2.07,0-.95.32-1.68.96-2.19.64-.5,1.54-.75,2.69-.75h2.46v1.58h-1.8c-.82,0-1.4.11-1.73.34-.33.23-.5.55-.5.96,0,.36.14.63.43.84s.69.3,1.2.3c.47,0,.87-.1,1.21-.31.34-.21.61-.48.8-.83.19-.34.28-.73.28-1.16h.61c0,1.25-.25,2.23-.75,2.95-.5.72-1.3,1.07-2.41,1.07ZM37.35,12.85l-.09-1.73v-2.99c0-.62-.06-1.15-.19-1.57s-.34-.75-.62-.97c-.29-.23-.67-.34-1.15-.34-.44,0-.83.09-1.16.28-.33.18-.61.47-.84.86l-1.8-.66c.2-.4.46-.78.78-1.13.32-.35.73-.63,1.23-.84.5-.21,1.09-.31,1.79-.31.89,0,1.64.17,2.24.52.6.35,1.04.85,1.33,1.5.29.65.43,1.43.43,2.35l-.06,5.03h-1.89Z"/>
        <path class="cls-1" d="M41,12.85V0h2.06v11.15l-.11,1.71h-1.95ZM45.96,13.07c-.77,0-1.44-.2-1.99-.6-.56-.4-.98-.96-1.28-1.68-.29-.72-.44-1.57-.44-2.53s.15-1.83.44-2.54c.29-.72.72-1.27,1.28-1.67.56-.4,1.22-.6,1.99-.6.83,0,1.56.2,2.18.6.62.4,1.1.95,1.45,1.67.35.72.52,1.56.52,2.54s-.17,1.81-.52,2.53c-.35.72-.83,1.28-1.45,1.68-.62.4-1.34.6-2.18.6ZM45.44,11.2c.49,0,.92-.13,1.3-.38.38-.25.68-.6.91-1.04.23-.44.34-.95.34-1.52s-.11-1.08-.32-1.52-.51-.78-.89-1.03c-.38-.24-.82-.37-1.32-.37-.47,0-.88.12-1.25.37-.37.24-.65.59-.85,1.03-.2.44-.3.95-.3,1.52s.1,1.08.3,1.52c.2.44.48.79.84,1.04.36.25.77.38,1.24.38Z"/>
        <path class="cls-1" d="M51.3,8.37V3.67h2.06v4.7h-2.06ZM53.36,8.37c0,.72.09,1.29.26,1.69.17.4.41.69.71.84.3.16.65.24,1.04.24.7.01,1.24-.21,1.62-.68.38-.47.57-1.13.57-2h.77c0,.97-.14,1.8-.43,2.49-.29.69-.69,1.22-1.21,1.58s-1.15.54-1.88.54-1.34-.15-1.86-.44c-.52-.29-.92-.75-1.2-1.38s-.42-1.43-.42-2.41v-.48h2.06ZM57.65,12.85l-.11-1.69V3.67h2.04v9.18h-1.93Z"/>
        <path class="cls-1" d="M61.49,12.85V0h2.06v12.85h-2.06Z"/>
        <path class="cls-1" d="M68.41,13.07c-1.1,0-1.96-.24-2.56-.73-.61-.49-.91-1.18-.91-2.07,0-.95.32-1.68.96-2.19.64-.5,1.54-.75,2.69-.75h2.46v1.58h-1.8c-.82,0-1.4.11-1.73.34-.33.23-.5.55-.5.96,0,.36.14.63.43.84s.69.3,1.2.3c.47,0,.87-.1,1.21-.31.34-.21.61-.48.8-.83.19-.34.28-.73.28-1.16h.61c0,1.25-.25,2.23-.75,2.95-.5.72-1.3,1.07-2.41,1.07ZM71.06,12.85l-.09-1.73v-2.99c0-.62-.06-1.15-.19-1.57s-.34-.75-.62-.97c-.29-.23-.67-.34-1.15-.34-.44,0-.83.09-1.16.28-.33.18-.61.47-.84.86l-1.8-.66c.2-.4.46-.78.78-1.13.32-.35.73-.63,1.23-.84.5-.21,1.09-.31,1.79-.31.89,0,1.64.17,2.24.52.6.35,1.04.85,1.33,1.5.29.65.43,1.43.43,2.35l-.06,5.03h-1.89Z"/>
        <path class="cls-1" d="M74.71,12.85V3.67h2.06v9.18h-2.06ZM76.07,7.97c0-.99.19-1.81.57-2.44.38-.64.87-1.11,1.48-1.42s1.24-.47,1.9-.47v1.96c-.56,0-1.09.08-1.59.23-.5.15-.9.4-1.2.74-.31.34-.46.8-.46,1.36l-.7.04Z"/>
        <path class="cls-1" d="M84.83,12.85l-4.11-9.18h2.24l3.19,7.73.66,1.45h-1.98ZM83.19,16.75c-.29,0-.62-.06-.98-.17s-.71-.25-1.04-.42l.77-1.67c.23.11.45.2.64.27.2.07.35.1.48.1.29,0,.54-.08.74-.23.2-.15.36-.38.49-.67l1.08-2.53,3.1-7.75h2.24l-4.26,10.15c-.26.59-.52,1.1-.78,1.54s-.59.78-.98,1.02-.89.36-1.51.36Z"/>
      </g>
      <g>
        <path class="cls-1" d="M18.36,23.86l2.77-6.81h.84l-2.73,6.81h-.87ZM19.68,21.92v-.74h3.78v.74h-3.78ZM23.89,23.86l-2.73-6.81h.83l2.77,6.81h-.87Z"/>
        <path class="cls-1" d="M25.25,23.86v-6.81h.78v6.81h-.78Z"/>
        <path class="cls-1" d="M29.22,23.97c-.47,0-.89-.11-1.25-.33-.36-.22-.65-.52-.85-.9-.2-.38-.31-.82-.31-1.32s.1-.94.31-1.32c.2-.38.49-.68.85-.9.36-.22.77-.33,1.24-.33s.85.11,1.18.34c.33.22.59.54.77.94.18.4.27.87.27,1.42h-4.02l.19-.17c0,.39.07.72.21,1,.14.28.34.49.59.64.25.15.54.22.87.22.34,0,.63-.08.87-.24.24-.16.42-.38.55-.64l.67.34c-.12.25-.29.47-.49.66-.2.19-.44.33-.72.44-.28.1-.58.16-.92.16ZM27.65,21.07l-.2-.16h3.35l-.2.17c0-.31-.06-.58-.18-.81-.12-.23-.29-.4-.5-.52-.21-.12-.45-.18-.72-.18s-.52.06-.75.18c-.24.12-.43.3-.57.52-.15.22-.22.49-.22.8Z"/>
        <path class="cls-1" d="M34.24,23.97c-.47,0-.89-.11-1.25-.33-.36-.22-.65-.52-.85-.9-.2-.38-.31-.82-.31-1.32s.1-.94.31-1.32c.2-.38.49-.68.85-.9.36-.22.77-.33,1.24-.33s.85.11,1.18.34c.33.22.59.54.77.94.18.4.27.87.27,1.42h-4.02l.19-.17c0,.39.07.72.21,1,.14.28.34.49.59.64.25.15.54.22.87.22.34,0,.63-.08.87-.24.24-.16.42-.38.55-.64l.67.34c-.12.25-.29.47-.49.66-.2.19-.44.33-.72.44-.28.1-.58.16-.92.16ZM32.66,21.07l-.2-.16h3.35l-.2.17c0-.31-.06-.58-.18-.81-.12-.23-.29-.4-.5-.52-.21-.12-.45-.18-.72-.18s-.52.06-.75.18c-.24.12-.43.3-.57.52-.15.22-.22.49-.22.8Z"/>
        <path class="cls-1" d="M37.13,23.86v-4.86h.73l.05.89v3.97h-.78ZM40.54,21.37c0-.48-.06-.85-.17-1.1-.11-.25-.26-.43-.46-.52-.19-.09-.41-.14-.66-.14-.43,0-.76.15-1,.45s-.35.73-.35,1.28h-.38c0-.51.07-.95.22-1.32.15-.37.37-.65.65-.85.28-.19.63-.29,1.03-.29s.71.08,1,.23c.28.15.5.39.66.72.16.33.23.76.23,1.3v.23h-.78ZM40.54,23.86v-2.49h.78v2.49h-.78Z"/>
        <path class="cls-1" d="M43.8,23.97c-.57,0-1.02-.13-1.34-.39-.32-.26-.48-.63-.48-1.09,0-.49.16-.87.49-1.13.33-.26.79-.39,1.38-.39h1.39v.65h-1.22c-.45,0-.78.07-.97.22-.19.15-.29.36-.29.64,0,.25.09.45.28.6.19.15.45.22.79.22.28,0,.52-.06.73-.18.21-.12.37-.29.48-.52s.17-.49.17-.79h.33c0,.66-.15,1.19-.45,1.58-.3.39-.73.59-1.3.59ZM45.25,23.86l-.04-.8v-1.77c0-.38-.04-.7-.13-.95-.08-.25-.22-.44-.4-.57-.18-.13-.42-.19-.71-.19-.27,0-.49.05-.69.16-.19.11-.35.28-.47.51l-.7-.27c.12-.23.27-.42.45-.59.17-.17.38-.29.61-.38.23-.09.5-.13.8-.13.45,0,.83.09,1.12.27.29.18.52.44.67.79.15.35.22.78.21,1.29v2.63h-.73Z"/>
        <path class="cls-1" d="M49.26,23.86v-6.81h2.22c.44,0,.83.09,1.17.26s.61.42.8.73c.19.31.29.67.29,1.07s-.1.76-.31,1.07-.49.56-.85.73c-.36.18-.76.27-1.21.27h-1.28v2.67h-.83ZM50.09,20.42h1.51c.25,0,.47-.06.66-.17.19-.11.35-.27.47-.47.12-.2.18-.42.18-.68,0-.39-.13-.7-.4-.95-.27-.24-.62-.36-1.04-.36h-1.37v2.62ZM53.1,23.86l-1.63-2.79.65-.43,1.89,3.22h-.9Z"/>
        <path class="cls-1" d="M56.37,23.97c-.57,0-1.02-.13-1.34-.39-.32-.26-.48-.63-.48-1.09,0-.49.16-.87.49-1.13.33-.26.79-.39,1.38-.39h1.39v.65h-1.22c-.45,0-.78.07-.97.22-.19.15-.29.36-.29.64,0,.25.09.45.28.6.19.15.45.22.79.22.28,0,.52-.06.73-.18.21-.12.37-.29.48-.52s.17-.49.17-.79h.33c0,.66-.15,1.19-.45,1.58-.3.39-.73.59-1.3.59ZM57.82,23.86l-.04-.8v-1.77c0-.38-.04-.7-.13-.95-.08-.25-.22-.44-.4-.57-.18-.13-.42-.19-.71-.19-.27,0-.49.05-.69.16-.19.11-.35.28-.47.51l-.7-.27c.12-.23.27-.42.45-.59.17-.17.38-.29.61-.38.23-.09.5-.13.8-.13.45,0,.83.09,1.12.27.29.18.52.44.67.79.15.35.22.78.21,1.29v2.63h-.73Z"/>
        <path class="cls-1" d="M59.94,17.87c-.13,0-.24-.05-.34-.15s-.15-.21-.15-.34.05-.25.15-.35c.1-.09.21-.14.34-.14s.25.05.35.14c.09.09.14.21.14.35s-.05.24-.14.34-.21.15-.35.15ZM59.54,23.86v-4.86h.78v4.86h-.78Z"/>
        <path class="cls-1" d="M63.16,23.97c-.36,0-.67-.05-.93-.16-.27-.11-.49-.25-.67-.42s-.31-.37-.38-.57l.68-.28c.11.22.28.4.5.53.22.14.46.2.73.2.3,0,.56-.06.77-.18.21-.12.31-.29.31-.51,0-.2-.08-.36-.23-.49-.15-.12-.38-.22-.68-.3l-.47-.13c-.44-.12-.78-.29-1.03-.53-.25-.24-.37-.5-.37-.8,0-.46.15-.82.45-1.07.3-.26.75-.38,1.35-.38.28,0,.54.04.78.13.23.08.43.2.6.35.17.15.29.33.37.54l-.68.3c-.08-.22-.22-.38-.42-.48s-.43-.15-.71-.15c-.3,0-.53.06-.7.19-.17.13-.25.3-.25.53,0,.13.07.25.21.36.14.11.35.21.62.28l.49.13c.32.08.58.19.8.35.21.15.38.33.49.52.11.19.17.4.17.62,0,.29-.08.54-.23.76-.16.21-.37.38-.63.49-.27.11-.57.17-.91.17Z"/>
      </g>
      <g>
        <path class="cls-1" d="M8.49,19.38c.23.18.34.49.34.83,0,1.3-1.43,3.76-2.62,3.76-.63,0-.7-.85-.57-1.67-.35.86-.95,1.67-1.61,1.67-.7,0-.75-.78-.58-1.61l.44-2.02c.04-.23.08-.43-.05-.43-.12,0-.34.23-.65.63l-.04-.03c.39-.75.81-1.13,1.16-1.13.39,0,.38.47.28.89l-.46,2.16c-.12.56-.09,1.1.34,1.1.65,0,1.28-1.78,1.55-2.99l.2-.92.66-.15h.03c-.33,1.37-.65,2.58-.65,3.32,0,.46.12.75.44.75.83,0,1.56-1.82,1.56-2.93,0-.43-.12-.87-.37-1.06v-.05l.59-.1Z"/>
        <path class="cls-1" d="M8.95,23.08l.59-2.74c.04-.2.09-.43-.05-.43-.12,0-.34.22-.64.61l-.04-.03c.37-.72.8-1.11,1.14-1.11.39,0,.39.39.28.89l-.58,2.74c-.03.12-.09.39.05.39.16,0,.49-.34.8-.75l.04.03c-.43.8-.89,1.28-1.29,1.28-.43,0-.39-.51-.3-.89ZM9.75,18.22c0-.26.21-.47.48-.47s.47.21.47.47-.21.47-.47.47-.48-.21-.48-.47Z"/>
        <path class="cls-1" d="M11.98,19.78l-.64,3.06c-.06.3-.08.62.17.62s.69-.34,1.23-1.07l.04.03c-.49.9-1.17,1.55-1.71,1.55-.44,0-.55-.45-.43-1.06l.67-3.12h-.44l.03-.08.13-.05c.41-.18.8-.49,1.21-1.26h.05l-.23,1.1h1.41l-.18.3h-1.3Z"/>
        <path class="cls-1" d="M16.88,22.69c-.43.8-.9,1.28-1.29,1.28s-.42-.39-.3-.89l.49-2.16c.13-.54.22-1.05-.18-1.05-.72,0-1.83,1.87-2.28,4h-.68l1.16-5.48c.11-.53.02-.72-.26-.79l.02-.05,1.11-.23h.03l-1.04,4.92c.61-1.66,1.51-2.86,2.35-2.86.69,0,.64.74.44,1.61l-.46,2.02c-.05.2-.1.43.03.43.13,0,.39-.23.81-.78l.04.03Z"/>
      </g>
    </g>
  </g>
</svg>