<?xml version="1.0" encoding="UTF-8"?>
<svg id="Layer_2" xmlns="http://www.w3.org/2000/svg" viewBox="0 0 70.3 22.36">
  <defs>
    <style>
      .cls-1 {
        fill: #9c5789;
      }

      .cls-2 {
        fill: #888;
      }
    </style>
  </defs>
  <g id="Layer_3">
    <g>
      <path class="cls-2" d="M61.81,5.39c-4.69,0-8.48,3.8-8.48,8.48s3.79,8.49,8.48,8.49,8.49-3.8,8.49-8.49-3.8-8.48-8.49-8.48ZM61.81,18.87c-2.77,0-5-2.24-5-5s2.24-5,5-5,5,2.24,5,5-2.24,5-5,5Z"/>
      <path class="cls-2" d="M43.82,5.39c-4.68,0-8.48,3.8-8.48,8.48s3.8,8.49,8.48,8.49,8.49-3.8,8.49-8.49-3.8-8.48-8.49-8.48ZM43.82,18.87c-2.76,0-5-2.24-5-5s2.24-5,5-5,5,2.24,5,5-2.24,5-5,5Z"/>
      <path class="cls-2" d="M32.89,0h-.02c-.93,0-1.68.76-1.67,1.69v5.41c-1.43-1.07-3.2-1.71-5.12-1.71-4.69,0-8.49,3.79-8.49,8.48s3.8,8.49,8.49,8.49,8.48-3.8,8.48-8.49v-.07s.02-.06.02-.08V1.69c0-.93-.77-1.69-1.69-1.69ZM26.08,18.87c-2.77,0-5-2.24-5-5s2.24-5,5-5,5,2.25,5,5-2.24,5-5,5Z"/>
      <path class="cls-1" d="M8.49,5.36C3.8,5.36,0,9.17,0,13.84s3.8,8.49,8.49,8.49,8.48-3.8,8.48-8.49-3.79-8.48-8.48-8.48ZM8.41,18.88c-2.77,0-5-2.24-5-5s2.24-5,5-5,5,2.24,5,5-2.24,5-5,5Z"/>
    </g>
  </g>
</svg>