<?xml version="1.0" encoding="UTF-8"?>
<svg id="Layer_2" xmlns="http://www.w3.org/2000/svg" viewBox="0 0 89.44 13.7">
  <defs>
    <style>
      .cls-1 {
        fill: #093a6c;
      }
    </style>
  </defs>
  <g id="Layer_3">
    <g id="g8">
      <g id="g10">
        <g id="g12">
          <g id="g18">
            <g id="path20">
              <path class="cls-1" d="M84.91,6.02v1.86h1.31v1.85c0,.17,0,.34-.03.49-.05.35-.38.93-1.31.93s-1.25-.59-1.3-.93c-.02-.14-.03-.32-.03-.49V3.89c0-.21.01-.43.06-.6.06-.31.34-.93,1.27-.93.98,0,1.22.65,1.28.93.04.18.04.49.04.49v.71h3.22v-.42s.01-.44-.02-.85c-.24-2.4-2.22-3.16-4.48-3.16s-4.21.77-4.49,3.16c-.03.22-.06.61-.06.85v5.38c0,.23,0,.42.05.84.21,2.33,2.23,3.16,4.49,3.16s4.28-.83,4.5-3.16c.04-.43.04-.61.05-.84v-3.43h-4.52ZM62.71.41h-3.23v9.46c0,.16,0,.35-.03.49-.07.32-.34.93-1.23.93s-1.16-.61-1.22-.93c-.03-.14-.04-.32-.03-.49V.41h-3.23v9.17c0,.24.01.72.03.85.22,2.39,2.11,3.16,4.46,3.16s4.24-.78,4.46-3.16c.02-.13.04-.61.03-.85V.41ZM33,.41l-1.61,9.99L29.78.41h-5.22l-.28,12.79h3.2l.09-11.84,2.2,11.84h3.24l2.2-11.84.09,11.84h3.2l-.29-12.79h-5.21ZM13.69.41l-2.37,12.79h3.45l1.78-11.84,1.74,11.84h3.43L19.37.41h-5.68ZM74.01,10.7l-3.01-10.29h-4.74v12.65h3.14l-.18-10.62,3.23,10.62h4.55V.41h-3.16l.17,10.29ZM44.98,3.73c-.06-.25-.04-.52-.01-.66.09-.41.37-.86,1.16-.86.74,0,1.17.46,1.17,1.15v.78h3.15v-.89c0-2.75-2.47-3.19-4.26-3.19-2.25,0-4.09.74-4.43,2.82-.09.56-.11,1.06.03,1.7.55,2.58,5.05,3.33,5.7,4.97.12.31.08.7.02.94-.1.43-.38.85-1.23.85-.8,0-1.27-.46-1.27-1.15v-1.23h-3.39v.98c0,2.83,2.21,3.68,4.6,3.68s4.17-.78,4.47-2.9c.14-1.09.04-1.8-.02-2.07-.53-2.65-5.32-3.45-5.69-4.93M3.4,3.7c-.06-.26-.05-.53-.01-.67.09-.41.36-.86,1.17-.86.75,0,1.19.46,1.19,1.16v.79h3.19v-.9C8.93.44,6.43,0,4.62,0,2.35,0,.49.75.15,2.84c-.09.57-.11,1.08.03,1.72.55,2.61,5.1,3.37,5.76,5.02.12.31.09.7.02.94-.1.43-.39.86-1.25.86-.8,0-1.28-.47-1.28-1.16v-1.23H0v.98c0,2.86,2.25,3.72,4.65,3.72s4.21-.79,4.52-2.93c.15-1.1.04-1.82-.01-2.09-.54-2.68-5.39-3.48-5.75-4.97"/>
            </g>
          </g>
        </g>
      </g>
    </g>
  </g>
</svg>