<?xml version="1.0" encoding="UTF-8"?>
<svg id="Layer_2" xmlns="http://www.w3.org/2000/svg" xmlns:xlink="http://www.w3.org/1999/xlink" viewBox="0 0 123.16 131.97">
  <defs>
    <style>
      .cls-1 {
        fill: url(#radial-gradient-2);
      }

      .cls-2 {
        fill: url(#radial-gradient);
      }

      .cls-3 {
        font-size: 14.2px;
        letter-spacing: -.02em;
      }

      .cls-3, .cls-4 {
        font-family: Figtree-Medium, Figtree;
        font-weight: 500;
      }

      .cls-4 {
        font-size: 23.61px;
        letter-spacing: -.02em;
      }

      .cls-4, .cls-5 {
        fill: #212933;
      }

      .cls-5 {
        font-family: Figtree-SemiBold, Figtree;
        font-size: 53.1px;
        font-weight: 600;
        letter-spacing: -.03em;
      }

      .cls-6 {
        fill: #fff;
      }

      .cls-7 {
        fill: red;
      }
    </style>
    <radialGradient id="radial-gradient" cx="-572.13" cy="487.75" fx="-572.13" fy="487.75" r="9.74" gradientTransform="translate(968.66 -1014.79) rotate(-90) scale(1.98 -1.84)" gradientUnits="userSpaceOnUse">
      <stop offset="0" stop-color="#fd5"/>
      <stop offset=".1" stop-color="#fd5"/>
      <stop offset=".5" stop-color="#ff543e"/>
      <stop offset="1" stop-color="#c837ab"/>
    </radialGradient>
    <radialGradient id="radial-gradient-2" cx="-1151.51" cy="1487.94" fx="-1151.51" fy="1487.94" r="9.74" gradientTransform="translate(-5068.36 2167.05) rotate(78.68) scale(.89 -3.65)" gradientUnits="userSpaceOnUse">
      <stop offset="0" stop-color="#3771c8"/>
      <stop offset=".13" stop-color="#3771c8"/>
      <stop offset="1" stop-color="#60f" stop-opacity="0"/>
    </radialGradient>
  </defs>
  <g id="Layer_3">
    <rect class="cls-6" width="123.16" height="131.97"/>
    <text class="cls-5" transform="translate(9.65 53.54)"><tspan x="0" y="0">7M+</tspan></text>
    <text class="cls-4" transform="translate(9.65 81.81)"><tspan x="0" y="0">Learners</tspan></text>
    <text class="cls-3" transform="translate(9.65 112.44)"><tspan x="0" y="0">on</tspan></text>
    <g>
      <path class="cls-7" d="M55.8,101.95c-.27-1.02-1.08-1.83-2.1-2.1-1.85-.5-9.28-.5-9.28-.5,0,0-7.43,0-9.28.5-1.02.27-1.83,1.08-2.1,2.1-.5,1.85-.5,5.72-.5,5.72,0,0,0,3.86.5,5.72.27,1.02,1.08,1.83,2.1,2.1,1.85.5,9.28.5,9.28.5,0,0,7.43,0,9.28-.5,1.02-.27,1.83-1.08,2.1-2.1.5-1.85.5-5.72.5-5.72,0,0,0-3.86-.5-5.72Z"/>
      <path class="cls-6" d="M42.04,111.23l6.17-3.56-6.17-3.56v7.12Z"/>
    </g>
    <g>
      <path class="cls-2" d="M73.86,98.19c-4.07,0-5.26,0-5.49.02-.83.07-1.35.2-1.92.48-.44.22-.78.47-1.12.82-.62.64-.99,1.43-1.13,2.37-.07.46-.09.55-.09,2.88,0,.78,0,1.8,0,3.17,0,4.06,0,5.25.02,5.48.07.81.19,1.32.46,1.88.52,1.07,1.5,1.87,2.66,2.17.4.1.85.16,1.41.19.24.01,2.7.02,5.16.02s4.92,0,5.16-.01c.66-.03,1.04-.08,1.47-.19,1.17-.3,2.13-1.09,2.66-2.18.26-.55.4-1.08.46-1.85.01-.17.02-2.84.02-5.52s0-5.34-.02-5.51c-.06-.78-.2-1.31-.47-1.86-.22-.46-.47-.79-.83-1.14-.64-.62-1.43-.99-2.37-1.13-.46-.07-.55-.09-2.87-.09h-3.17Z"/>
      <path class="cls-1" d="M73.86,98.19c-4.07,0-5.26,0-5.49.02-.83.07-1.35.2-1.92.48-.44.22-.78.47-1.12.82-.62.64-.99,1.43-1.13,2.37-.07.46-.09.55-.09,2.88,0,.78,0,1.8,0,3.17,0,4.06,0,5.25.02,5.48.07.81.19,1.32.46,1.88.52,1.07,1.5,1.87,2.66,2.17.4.1.85.16,1.41.19.24.01,2.7.02,5.16.02s4.92,0,5.16-.01c.66-.03,1.04-.08,1.47-.19,1.17-.3,2.13-1.09,2.66-2.18.26-.55.4-1.08.46-1.85.01-.17.02-2.84.02-5.52s0-5.34-.02-5.51c-.06-.78-.2-1.31-.47-1.86-.22-.46-.47-.79-.83-1.14-.64-.62-1.43-.99-2.37-1.13-.46-.07-.55-.09-2.87-.09h-3.17Z"/>
      <path class="cls-6" d="M73.85,100.74c-1.95,0-2.2,0-2.97.04-.77.04-1.29.16-1.75.33-.47.18-.87.43-1.27.83-.4.4-.65.8-.83,1.27-.18.46-.3.98-.33,1.75-.03.77-.04,1.01-.04,2.97s0,2.2.04,2.96c.04.77.16,1.29.33,1.75.18.47.43.87.83,1.27.4.4.8.65,1.27.83.46.18.98.3,1.75.33.77.03,1.01.04,2.97.04s2.2,0,2.97-.04c.77-.04,1.29-.16,1.75-.33.47-.18.87-.43,1.27-.83.4-.4.65-.8.83-1.27.18-.46.3-.98.33-1.75.03-.77.04-1.01.04-2.97s0-2.2-.04-2.97c-.04-.77-.16-1.29-.33-1.75-.18-.47-.43-.87-.83-1.27-.4-.4-.8-.65-1.27-.83-.46-.18-.98-.3-1.75-.33-.77-.03-1.01-.04-2.97-.04h0ZM73.21,102.03c.19,0,.41,0,.65,0,1.92,0,2.15,0,2.91.04.7.03,1.08.15,1.34.25.34.13.57.29.83.54.25.25.41.49.54.83.1.25.22.63.25,1.34.03.76.04.99.04,2.91s0,2.15-.04,2.91c-.03.7-.15,1.08-.25,1.34-.13.34-.29.57-.54.83-.25.25-.49.41-.83.54-.25.1-.63.22-1.34.25-.76.03-.99.04-2.91.04s-2.15,0-2.91-.04c-.7-.03-1.08-.15-1.34-.25-.34-.13-.58-.29-.83-.54-.25-.25-.41-.49-.54-.83-.1-.25-.22-.63-.25-1.34-.03-.76-.04-.99-.04-2.91s0-2.15.04-2.91c.03-.7.15-1.08.25-1.34.13-.34.29-.58.54-.83.25-.25.49-.41.83-.54.25-.1.63-.22,1.34-.25.66-.03.92-.04,2.26-.04h0ZM77.69,103.23c-.48,0-.86.39-.86.86s.39.86.86.86.86-.39.86-.86-.39-.86-.86-.86h0ZM73.85,104.24c-2.04,0-3.69,1.65-3.69,3.69s1.65,3.69,3.69,3.69c2.04,0,3.69-1.65,3.69-3.69s-1.65-3.69-3.69-3.69h0ZM73.85,105.53c1.32,0,2.4,1.07,2.4,2.4s-1.07,2.4-2.4,2.4-2.4-1.07-2.4-2.4,1.07-2.4,2.4-2.4Z"/>
    </g>
  </g>
</svg>